<mxfile host="Electron" agent="Mozilla/5.0 (Windows NT 10.0; Win64; x64) AppleWebKit/537.36 (KHTML, like Gecko) draw.io/24.7.8 Chrome/128.0.6613.36 Electron/32.0.1 Safari/537.36" version="24.7.8">
  <diagram name="Сторінка-1" id="Hb8JzU51m7kRyTswyd7V">
    <mxGraphModel dx="941" dy="1813" grid="1" gridSize="10" guides="1" tooltips="1" connect="1" arrows="1" fold="1" page="1" pageScale="1" pageWidth="827" pageHeight="1169" math="0" shadow="0">
      <root>
        <mxCell id="0" />
        <mxCell id="1" parent="0" />
        <mxCell id="etx2xzuBptUM31qglfzM-5" value="" style="edgeStyle=orthogonalEdgeStyle;rounded=0;orthogonalLoop=1;jettySize=auto;html=1;" edge="1" parent="1" source="etx2xzuBptUM31qglfzM-1" target="etx2xzuBptUM31qglfzM-4">
          <mxGeometry relative="1" as="geometry" />
        </mxCell>
        <mxCell id="etx2xzuBptUM31qglfzM-1" value="Start" style="strokeWidth=2;html=1;shape=mxgraph.flowchart.start_1;whiteSpace=wrap;" vertex="1" parent="1">
          <mxGeometry x="318" y="-1130" width="100" height="60" as="geometry" />
        </mxCell>
        <mxCell id="etx2xzuBptUM31qglfzM-7" value="" style="edgeStyle=orthogonalEdgeStyle;rounded=0;orthogonalLoop=1;jettySize=auto;html=1;" edge="1" parent="1" source="etx2xzuBptUM31qglfzM-4">
          <mxGeometry relative="1" as="geometry">
            <mxPoint x="368" y="-850" as="targetPoint" />
          </mxGeometry>
        </mxCell>
        <mxCell id="etx2xzuBptUM31qglfzM-9" value="" style="edgeStyle=orthogonalEdgeStyle;rounded=0;orthogonalLoop=1;jettySize=auto;html=1;" edge="1" parent="1" source="etx2xzuBptUM31qglfzM-4" target="etx2xzuBptUM31qglfzM-8">
          <mxGeometry relative="1" as="geometry" />
        </mxCell>
        <mxCell id="etx2xzuBptUM31qglfzM-4" value="cin&amp;gt;&amp;gt;n,m" style="shape=parallelogram;perimeter=parallelogramPerimeter;whiteSpace=wrap;html=1;fixedSize=1;strokeWidth=2;" vertex="1" parent="1">
          <mxGeometry x="308" y="-990" width="120" height="60" as="geometry" />
        </mxCell>
        <mxCell id="etx2xzuBptUM31qglfzM-11" value="" style="edgeStyle=orthogonalEdgeStyle;rounded=0;orthogonalLoop=1;jettySize=auto;html=1;" edge="1" parent="1" source="etx2xzuBptUM31qglfzM-8" target="etx2xzuBptUM31qglfzM-10">
          <mxGeometry relative="1" as="geometry" />
        </mxCell>
        <mxCell id="etx2xzuBptUM31qglfzM-8" value="cout&amp;lt;&amp;lt;n-m" style="shape=parallelogram;perimeter=parallelogramPerimeter;whiteSpace=wrap;html=1;fixedSize=1;strokeWidth=2;" vertex="1" parent="1">
          <mxGeometry x="308" y="-850" width="120" height="60" as="geometry" />
        </mxCell>
        <mxCell id="etx2xzuBptUM31qglfzM-13" value="" style="edgeStyle=orthogonalEdgeStyle;rounded=0;orthogonalLoop=1;jettySize=auto;html=1;" edge="1" parent="1" source="etx2xzuBptUM31qglfzM-10" target="etx2xzuBptUM31qglfzM-12">
          <mxGeometry relative="1" as="geometry" />
        </mxCell>
        <mxCell id="etx2xzuBptUM31qglfzM-10" value="n+1" style="whiteSpace=wrap;html=1;strokeWidth=2;" vertex="1" parent="1">
          <mxGeometry x="308" y="-710" width="120" height="60" as="geometry" />
        </mxCell>
        <mxCell id="etx2xzuBptUM31qglfzM-15" value="" style="edgeStyle=orthogonalEdgeStyle;rounded=0;orthogonalLoop=1;jettySize=auto;html=1;" edge="1" parent="1" source="etx2xzuBptUM31qglfzM-12" target="etx2xzuBptUM31qglfzM-14">
          <mxGeometry relative="1" as="geometry" />
        </mxCell>
        <mxCell id="etx2xzuBptUM31qglfzM-12" value="cout&amp;lt;&amp;lt;( m&amp;gt;n)" style="shape=parallelogram;perimeter=parallelogramPerimeter;whiteSpace=wrap;html=1;fixedSize=1;strokeWidth=2;" vertex="1" parent="1">
          <mxGeometry x="478" y="-710" width="120" height="60" as="geometry" />
        </mxCell>
        <mxCell id="etx2xzuBptUM31qglfzM-17" value="" style="edgeStyle=orthogonalEdgeStyle;rounded=0;orthogonalLoop=1;jettySize=auto;html=1;" edge="1" parent="1" source="etx2xzuBptUM31qglfzM-14" target="etx2xzuBptUM31qglfzM-16">
          <mxGeometry relative="1" as="geometry" />
        </mxCell>
        <mxCell id="etx2xzuBptUM31qglfzM-14" value="m-1" style="whiteSpace=wrap;html=1;strokeWidth=2;" vertex="1" parent="1">
          <mxGeometry x="478" y="-840" width="120" height="60" as="geometry" />
        </mxCell>
        <mxCell id="etx2xzuBptUM31qglfzM-19" value="" style="edgeStyle=orthogonalEdgeStyle;rounded=0;orthogonalLoop=1;jettySize=auto;html=1;" edge="1" parent="1" source="etx2xzuBptUM31qglfzM-16" target="etx2xzuBptUM31qglfzM-18">
          <mxGeometry relative="1" as="geometry" />
        </mxCell>
        <mxCell id="etx2xzuBptUM31qglfzM-16" value="cout&amp;lt;&amp;lt;(n&amp;gt;m)" style="shape=parallelogram;perimeter=parallelogramPerimeter;whiteSpace=wrap;html=1;fixedSize=1;strokeWidth=2;" vertex="1" parent="1">
          <mxGeometry x="478" y="-990" width="120" height="60" as="geometry" />
        </mxCell>
        <mxCell id="etx2xzuBptUM31qglfzM-21" value="" style="edgeStyle=orthogonalEdgeStyle;rounded=0;orthogonalLoop=1;jettySize=auto;html=1;" edge="1" parent="1" source="etx2xzuBptUM31qglfzM-18" target="etx2xzuBptUM31qglfzM-20">
          <mxGeometry relative="1" as="geometry" />
        </mxCell>
        <mxCell id="etx2xzuBptUM31qglfzM-18" value="n-1" style="whiteSpace=wrap;html=1;strokeWidth=2;" vertex="1" parent="1">
          <mxGeometry x="648" y="-990" width="120" height="60" as="geometry" />
        </mxCell>
        <mxCell id="etx2xzuBptUM31qglfzM-20" value="End" style="strokeWidth=2;html=1;shape=mxgraph.flowchart.start_1;whiteSpace=wrap;" vertex="1" parent="1">
          <mxGeometry x="658" y="-858" width="100" height="60" as="geometry" />
        </mxCell>
      </root>
    </mxGraphModel>
  </diagram>
</mxfile>
